<svg width="819" height="397" viewBox="0 0 819 397" fill="none" xmlns="http://www.w3.org/2000/svg">
<g clip-path="url(#clip0_103_32)">
<rect width="818" height="397" transform="translate(0.269775)" />
<rect x="85.2698" y="46" width="649" height="405" rx="23" fill="white"/>
<rect x="85.7698" y="46.5" width="648" height="404" rx="22.5" stroke="black" stroke-opacity="0.08"/>
<path d="M725.27 248L87.2698 248" stroke="url(#paint0_linear_103_32)" stroke-opacity="0.2" stroke-linecap="round"/>
<path d="M725.27 285L87.2698 285" stroke="url(#paint1_linear_103_32)" stroke-opacity="0.2" stroke-linecap="round"/>
<path d="M725.27 322L87.2698 322" stroke="url(#paint2_linear_103_32)" stroke-opacity="0.2" stroke-linecap="round"/>
<path d="M725.27 359L87.2698 359" stroke="url(#paint3_linear_103_32)" stroke-opacity="0.2" stroke-linecap="round"/>
<path d="M730.094 132L90.2698 132" stroke="url(#paint4_linear_103_32)" stroke-opacity="0.2" stroke-linecap="round"/>
<path d="M145.122 177.455V162.909H146.054V177.455H145.122ZM147.594 167.71C147.548 167.252 147.353 166.896 147.008 166.642C146.664 166.388 146.196 166.261 145.605 166.261C145.203 166.261 144.864 166.318 144.588 166.432C144.311 166.542 144.099 166.695 143.952 166.892C143.808 167.089 143.736 167.312 143.736 167.562C143.728 167.771 143.772 167.953 143.866 168.108C143.965 168.263 144.099 168.398 144.27 168.511C144.44 168.621 144.637 168.718 144.861 168.801C145.084 168.881 145.323 168.949 145.577 169.006L146.622 169.256C147.13 169.369 147.596 169.521 148.02 169.71C148.444 169.9 148.811 170.133 149.122 170.409C149.433 170.686 149.673 171.011 149.844 171.386C150.018 171.761 150.107 172.191 150.111 172.676C150.107 173.388 149.925 174.006 149.565 174.528C149.209 175.047 148.694 175.451 148.02 175.739C147.349 176.023 146.541 176.165 145.594 176.165C144.654 176.165 143.836 176.021 143.139 175.733C142.446 175.445 141.904 175.019 141.514 174.455C141.128 173.886 140.925 173.184 140.906 172.347H143.287C143.313 172.737 143.425 173.062 143.622 173.324C143.823 173.581 144.09 173.777 144.423 173.909C144.76 174.038 145.141 174.102 145.565 174.102C145.982 174.102 146.344 174.042 146.65 173.92C146.961 173.799 147.202 173.631 147.372 173.415C147.543 173.199 147.628 172.951 147.628 172.67C147.628 172.409 147.55 172.189 147.395 172.011C147.243 171.833 147.02 171.682 146.724 171.557C146.433 171.432 146.075 171.318 145.65 171.216L144.383 170.898C143.402 170.659 142.628 170.286 142.06 169.778C141.491 169.271 141.209 168.587 141.213 167.727C141.209 167.023 141.397 166.407 141.775 165.881C142.158 165.354 142.683 164.943 143.349 164.648C144.016 164.352 144.774 164.205 145.622 164.205C146.486 164.205 147.239 164.352 147.883 164.648C148.531 164.943 149.035 165.354 149.395 165.881C149.755 166.407 149.94 167.017 149.952 167.71H147.594ZM151.697 176V174.227L155.839 170.392C156.192 170.051 156.487 169.744 156.726 169.472C156.968 169.199 157.152 168.932 157.277 168.67C157.402 168.405 157.464 168.119 157.464 167.812C157.464 167.472 157.387 167.178 157.231 166.932C157.076 166.682 156.864 166.491 156.595 166.358C156.326 166.222 156.021 166.153 155.68 166.153C155.324 166.153 155.014 166.225 154.748 166.369C154.483 166.513 154.279 166.72 154.135 166.989C153.991 167.258 153.919 167.578 153.919 167.949H151.584C151.584 167.187 151.756 166.527 152.101 165.966C152.445 165.405 152.928 164.972 153.55 164.665C154.171 164.358 154.887 164.205 155.697 164.205C156.531 164.205 157.256 164.352 157.873 164.648C158.495 164.939 158.978 165.345 159.322 165.864C159.667 166.383 159.839 166.977 159.839 167.648C159.839 168.087 159.752 168.521 159.578 168.949C159.408 169.377 159.103 169.852 158.663 170.375C158.224 170.894 157.605 171.517 156.805 172.244L155.106 173.909V173.989H159.993V176H151.697ZM166.077 176.159C165.228 176.159 164.472 176.013 163.81 175.722C163.15 175.426 162.63 175.021 162.247 174.506C161.868 173.987 161.673 173.388 161.662 172.71H164.139C164.154 172.994 164.247 173.244 164.418 173.46C164.592 173.672 164.823 173.837 165.111 173.955C165.399 174.072 165.722 174.131 166.082 174.131C166.457 174.131 166.789 174.064 167.077 173.932C167.364 173.799 167.59 173.616 167.753 173.381C167.916 173.146 167.997 172.875 167.997 172.568C167.997 172.258 167.91 171.983 167.736 171.744C167.565 171.502 167.319 171.312 166.997 171.176C166.679 171.04 166.3 170.972 165.861 170.972H164.775V169.165H165.861C166.232 169.165 166.56 169.1 166.844 168.972C167.132 168.843 167.355 168.665 167.514 168.438C167.673 168.206 167.753 167.938 167.753 167.631C167.753 167.339 167.683 167.083 167.543 166.864C167.406 166.64 167.213 166.466 166.963 166.341C166.717 166.216 166.429 166.153 166.099 166.153C165.766 166.153 165.461 166.214 165.185 166.335C164.908 166.453 164.686 166.621 164.52 166.841C164.353 167.061 164.264 167.318 164.253 167.614H161.895C161.906 166.943 162.097 166.352 162.469 165.841C162.84 165.33 163.34 164.93 163.969 164.642C164.601 164.35 165.315 164.205 166.111 164.205C166.914 164.205 167.616 164.35 168.219 164.642C168.821 164.934 169.289 165.328 169.622 165.824C169.959 166.316 170.126 166.869 170.122 167.483C170.126 168.134 169.923 168.678 169.514 169.114C169.109 169.549 168.58 169.826 167.929 169.943V170.034C168.785 170.144 169.436 170.441 169.883 170.926C170.334 171.407 170.558 172.009 170.554 172.733C170.558 173.396 170.366 173.985 169.98 174.5C169.597 175.015 169.069 175.42 168.395 175.716C167.721 176.011 166.948 176.159 166.077 176.159ZM174.648 174.409L174.585 175.034C174.536 175.534 174.441 176.032 174.301 176.528C174.165 177.028 174.021 177.481 173.869 177.886C173.721 178.292 173.602 178.61 173.511 178.841H171.943C172 178.617 172.078 178.305 172.176 177.903C172.275 177.506 172.367 177.059 172.454 176.562C172.542 176.066 172.596 175.561 172.619 175.045L172.648 174.409H174.648ZM176.662 173.955V172.017L181.52 164.364H183.19V167.045H182.202L179.139 171.892V171.983H186.043V173.955H176.662ZM182.247 176V173.364L182.293 172.506V164.364H184.599V176H182.247ZM191.983 176.159C191.134 176.159 190.379 176.013 189.716 175.722C189.057 175.426 188.536 175.021 188.153 174.506C187.775 173.987 187.579 173.388 187.568 172.71H190.045C190.06 172.994 190.153 173.244 190.324 173.46C190.498 173.672 190.729 173.837 191.017 173.955C191.305 174.072 191.629 174.131 191.989 174.131C192.364 174.131 192.695 174.064 192.983 173.932C193.271 173.799 193.496 173.616 193.659 173.381C193.822 173.146 193.903 172.875 193.903 172.568C193.903 172.258 193.816 171.983 193.642 171.744C193.471 171.502 193.225 171.312 192.903 171.176C192.585 171.04 192.206 170.972 191.767 170.972H190.682V169.165H191.767C192.138 169.165 192.466 169.1 192.75 168.972C193.038 168.843 193.261 168.665 193.42 168.438C193.579 168.206 193.659 167.938 193.659 167.631C193.659 167.339 193.589 167.083 193.449 166.864C193.312 166.64 193.119 166.466 192.869 166.341C192.623 166.216 192.335 166.153 192.006 166.153C191.672 166.153 191.367 166.214 191.091 166.335C190.814 166.453 190.593 166.621 190.426 166.841C190.259 167.061 190.17 167.318 190.159 167.614H187.801C187.812 166.943 188.004 166.352 188.375 165.841C188.746 165.33 189.246 164.93 189.875 164.642C190.507 164.35 191.221 164.205 192.017 164.205C192.82 164.205 193.523 164.35 194.125 164.642C194.727 164.934 195.195 165.328 195.528 165.824C195.865 166.316 196.032 166.869 196.028 167.483C196.032 168.134 195.829 168.678 195.42 169.114C195.015 169.549 194.487 169.826 193.835 169.943V170.034C194.691 170.144 195.343 170.441 195.79 170.926C196.24 171.407 196.464 172.009 196.46 172.733C196.464 173.396 196.273 173.985 195.886 174.5C195.504 175.015 194.975 175.42 194.301 175.716C193.627 176.011 192.854 176.159 191.983 176.159ZM202.479 176.159C201.676 176.159 200.96 176.011 200.331 175.716C199.706 175.42 199.21 175.013 198.842 174.494C198.475 173.975 198.284 173.381 198.268 172.71H200.655C200.681 173.161 200.871 173.527 201.223 173.807C201.575 174.087 201.994 174.227 202.479 174.227C202.865 174.227 203.206 174.142 203.501 173.972C203.801 173.797 204.034 173.557 204.2 173.25C204.371 172.939 204.456 172.583 204.456 172.182C204.456 171.773 204.369 171.413 204.194 171.102C204.024 170.792 203.787 170.549 203.484 170.375C203.181 170.201 202.835 170.112 202.444 170.108C202.104 170.108 201.772 170.178 201.45 170.318C201.132 170.458 200.884 170.65 200.706 170.892L198.518 170.5L199.069 164.364H206.183V166.375H201.098L200.797 169.29H200.865C201.069 169.002 201.378 168.763 201.791 168.574C202.204 168.384 202.666 168.29 203.177 168.29C203.878 168.29 204.503 168.455 205.052 168.784C205.602 169.114 206.035 169.566 206.354 170.142C206.672 170.714 206.829 171.373 206.825 172.119C206.829 172.903 206.647 173.6 206.28 174.21C205.916 174.816 205.407 175.294 204.751 175.642C204.1 175.987 203.342 176.159 202.479 176.159Z" fill="#CACACA"/>
<path d="M301.122 177.455V162.909H302.054V177.455H301.122ZM303.594 167.71C303.548 167.252 303.353 166.896 303.008 166.642C302.664 166.388 302.196 166.261 301.605 166.261C301.203 166.261 300.864 166.318 300.588 166.432C300.311 166.542 300.099 166.695 299.952 166.892C299.808 167.089 299.736 167.312 299.736 167.562C299.728 167.771 299.772 167.953 299.866 168.108C299.965 168.263 300.099 168.398 300.27 168.511C300.44 168.621 300.637 168.718 300.861 168.801C301.084 168.881 301.323 168.949 301.577 169.006L302.622 169.256C303.13 169.369 303.596 169.521 304.02 169.71C304.444 169.9 304.811 170.133 305.122 170.409C305.433 170.686 305.673 171.011 305.844 171.386C306.018 171.761 306.107 172.191 306.111 172.676C306.107 173.388 305.925 174.006 305.565 174.528C305.209 175.047 304.694 175.451 304.02 175.739C303.349 176.023 302.541 176.165 301.594 176.165C300.654 176.165 299.836 176.021 299.139 175.733C298.446 175.445 297.904 175.019 297.514 174.455C297.128 173.886 296.925 173.184 296.906 172.347H299.287C299.313 172.737 299.425 173.062 299.622 173.324C299.823 173.581 300.09 173.777 300.423 173.909C300.76 174.038 301.141 174.102 301.565 174.102C301.982 174.102 302.344 174.042 302.65 173.92C302.961 173.799 303.202 173.631 303.372 173.415C303.543 173.199 303.628 172.951 303.628 172.67C303.628 172.409 303.55 172.189 303.395 172.011C303.243 171.833 303.02 171.682 302.724 171.557C302.433 171.432 302.075 171.318 301.65 171.216L300.383 170.898C299.402 170.659 298.628 170.286 298.06 169.778C297.491 169.271 297.209 168.587 297.213 167.727C297.209 167.023 297.397 166.407 297.775 165.881C298.158 165.354 298.683 164.943 299.349 164.648C300.016 164.352 300.774 164.205 301.622 164.205C302.486 164.205 303.239 164.352 303.883 164.648C304.531 164.943 305.035 165.354 305.395 165.881C305.755 166.407 305.94 167.017 305.952 167.71H303.594ZM312.76 164.364V176H310.3V166.699H310.231L307.567 168.369V166.188L310.447 164.364H312.76ZM320.088 176.256C319.111 176.252 318.27 176.011 317.565 175.534C316.864 175.057 316.325 174.366 315.946 173.46C315.571 172.555 315.385 171.466 315.389 170.193C315.389 168.924 315.577 167.843 315.952 166.949C316.33 166.055 316.87 165.375 317.571 164.909C318.275 164.439 319.114 164.205 320.088 164.205C321.061 164.205 321.899 164.439 322.599 164.909C323.304 165.379 323.846 166.061 324.224 166.955C324.603 167.845 324.791 168.924 324.787 170.193C324.787 171.47 324.597 172.561 324.219 173.466C323.844 174.371 323.306 175.062 322.605 175.54C321.904 176.017 321.065 176.256 320.088 176.256ZM320.088 174.216C320.755 174.216 321.287 173.881 321.685 173.21C322.082 172.54 322.279 171.534 322.275 170.193C322.275 169.311 322.185 168.576 322.003 167.989C321.825 167.402 321.571 166.96 321.241 166.665C320.916 166.369 320.531 166.222 320.088 166.222C319.425 166.222 318.895 166.553 318.497 167.216C318.099 167.879 317.899 168.871 317.895 170.193C317.895 171.087 317.984 171.833 318.162 172.432C318.344 173.027 318.599 173.473 318.929 173.773C319.258 174.068 319.645 174.216 320.088 174.216ZM328.726 174.409L328.663 175.034C328.614 175.534 328.519 176.032 328.379 176.528C328.243 177.028 328.099 177.481 327.947 177.886C327.8 178.292 327.68 178.61 327.589 178.841H326.021C326.078 178.617 326.156 178.305 326.254 177.903C326.353 177.506 326.445 177.059 326.533 176.562C326.62 176.066 326.675 175.561 326.697 175.045L326.726 174.409H328.726ZM334.842 176.159C333.994 176.159 333.238 176.013 332.575 175.722C331.916 175.426 331.395 175.021 331.013 174.506C330.634 173.987 330.439 173.388 330.427 172.71H332.905C332.92 172.994 333.013 173.244 333.183 173.46C333.357 173.672 333.588 173.837 333.876 173.955C334.164 174.072 334.488 174.131 334.848 174.131C335.223 174.131 335.554 174.064 335.842 173.932C336.13 173.799 336.355 173.616 336.518 173.381C336.681 173.146 336.763 172.875 336.763 172.568C336.763 172.258 336.676 171.983 336.501 171.744C336.331 171.502 336.085 171.312 335.763 171.176C335.444 171.04 335.066 170.972 334.626 170.972H333.541V169.165H334.626C334.998 169.165 335.325 169.1 335.609 168.972C335.897 168.843 336.121 168.665 336.28 168.438C336.439 168.206 336.518 167.938 336.518 167.631C336.518 167.339 336.448 167.083 336.308 166.864C336.172 166.64 335.979 166.466 335.729 166.341C335.482 166.216 335.194 166.153 334.865 166.153C334.532 166.153 334.227 166.214 333.95 166.335C333.674 166.453 333.452 166.621 333.285 166.841C333.119 167.061 333.03 167.318 333.018 167.614H330.66C330.672 166.943 330.863 166.352 331.234 165.841C331.605 165.33 332.105 164.93 332.734 164.642C333.367 164.35 334.081 164.205 334.876 164.205C335.679 164.205 336.382 164.35 336.984 164.642C337.587 164.934 338.054 165.328 338.388 165.824C338.725 166.316 338.891 166.869 338.888 167.483C338.891 168.134 338.689 168.678 338.28 169.114C337.874 169.549 337.346 169.826 336.694 169.943V170.034C337.551 170.144 338.202 170.441 338.649 170.926C339.1 171.407 339.323 172.009 339.319 172.733C339.323 173.396 339.132 173.985 338.746 174.5C338.363 175.015 337.835 175.42 337.16 175.716C336.486 176.011 335.713 176.159 334.842 176.159ZM341.088 176V174.227L345.23 170.392C345.582 170.051 345.878 169.744 346.116 169.472C346.359 169.199 346.543 168.932 346.668 168.67C346.793 168.405 346.855 168.119 346.855 167.812C346.855 167.472 346.777 167.178 346.622 166.932C346.467 166.682 346.255 166.491 345.986 166.358C345.717 166.222 345.412 166.153 345.071 166.153C344.715 166.153 344.404 166.225 344.139 166.369C343.874 166.513 343.669 166.72 343.525 166.989C343.382 167.258 343.31 167.578 343.31 167.949H340.974C340.974 167.187 341.147 166.527 341.491 165.966C341.836 165.405 342.319 164.972 342.94 164.665C343.561 164.358 344.277 164.205 345.088 164.205C345.921 164.205 346.647 164.352 347.264 164.648C347.885 164.939 348.368 165.345 348.713 165.864C349.058 166.383 349.23 166.977 349.23 167.648C349.23 168.087 349.143 168.521 348.969 168.949C348.798 169.377 348.493 169.852 348.054 170.375C347.614 170.894 346.995 171.517 346.196 172.244L344.497 173.909V173.989H349.383V176H341.088ZM355.729 176.256C354.751 176.252 353.91 176.011 353.206 175.534C352.505 175.057 351.965 174.366 351.587 173.46C351.212 172.555 351.026 171.466 351.03 170.193C351.03 168.924 351.217 167.843 351.592 166.949C351.971 166.055 352.511 165.375 353.212 164.909C353.916 164.439 354.755 164.205 355.729 164.205C356.702 164.205 357.539 164.439 358.24 164.909C358.944 165.379 359.486 166.061 359.865 166.955C360.244 167.845 360.431 168.924 360.427 170.193C360.427 171.47 360.238 172.561 359.859 173.466C359.484 174.371 358.946 175.062 358.246 175.54C357.545 176.017 356.706 176.256 355.729 176.256ZM355.729 174.216C356.395 174.216 356.927 173.881 357.325 173.21C357.723 172.54 357.92 171.534 357.916 170.193C357.916 169.311 357.825 168.576 357.643 167.989C357.465 167.402 357.212 166.96 356.882 166.665C356.556 166.369 356.172 166.222 355.729 166.222C355.066 166.222 354.535 166.553 354.138 167.216C353.74 167.879 353.539 168.871 353.535 170.193C353.535 171.087 353.624 171.833 353.802 172.432C353.984 173.027 354.24 173.473 354.569 173.773C354.899 174.068 355.285 174.216 355.729 174.216Z" fill="#CACACA"/>
<rect x="119.27" y="165" width="10" height="10" fill="#22C55E"/>
<rect x="275.27" y="165" width="10" height="10" fill="#22C55E"/>
<rect x="119.27" y="187" width="91" height="10" rx="1" fill="#242424" fill-opacity="0.04"/>
<rect x="116.27" y="70" width="137" height="15" rx="1" fill="#242424" fill-opacity="0.04"/>
<rect x="116.27" y="93" width="254" height="15" rx="1" fill="#242424" fill-opacity="0.04"/>
<rect x="275.27" y="187" width="91" height="10" rx="1" fill="#242424" fill-opacity="0.04"/>
<rect x="132.27" y="332" width="26" height="92" fill="#22C55E"/>
<rect x="171.27" y="368" width="26" height="56" fill="#22C55E"/>
<rect x="210.27" y="315" width="26" height="109" fill="#22C55E"/>
<rect x="249.27" y="279" width="26" height="145" fill="#22C55E"/>
<rect x="288.27" y="261" width="26" height="163" fill="#22C55E"/>
<rect x="327.27" y="323" width="26" height="101" fill="#22C55E"/>
<rect x="366.27" y="296" width="26" height="128" fill="#22C55E"/>
<rect x="405.27" y="286" width="26" height="138" fill="#22C55E"/>
<rect x="444.27" y="351" width="26" height="73" fill="#22C55E"/>
<rect x="483.27" y="272" width="26" height="152" fill="#22C55E"/>
<rect x="522.27" y="343" width="26" height="81" fill="#22C55E"/>
<rect x="561.27" y="358" width="26" height="66" fill="#22C55E"/>
<rect x="600.27" y="343" width="26" height="81" fill="#22C55E"/>
<rect x="639.27" y="326" width="26" height="98" fill="#22C55E"/>
<rect x="86.2698" y="239" width="647" height="158" fill="url(#paint5_linear_103_32)"/>
</g>
<defs>
<linearGradient id="paint0_linear_103_32" x1="725.27" y1="248.5" x2="87.2698" y2="248.5" gradientUnits="userSpaceOnUse">
<stop stop-color="#B5B5B5" stop-opacity="0.2"/>
<stop offset="0.546639" stop-color="#B5B5B5"/>
<stop offset="1" stop-color="#B5B5B5" stop-opacity="0.2"/>
</linearGradient>
<linearGradient id="paint1_linear_103_32" x1="725.27" y1="285.5" x2="87.2698" y2="285.5" gradientUnits="userSpaceOnUse">
<stop stop-color="#B5B5B5" stop-opacity="0.2"/>
<stop offset="0.546639" stop-color="#B5B5B5"/>
<stop offset="1" stop-color="#B5B5B5" stop-opacity="0.2"/>
</linearGradient>
<linearGradient id="paint2_linear_103_32" x1="725.27" y1="322.5" x2="87.2698" y2="322.5" gradientUnits="userSpaceOnUse">
<stop stop-color="#B5B5B5" stop-opacity="0.2"/>
<stop offset="0.546639" stop-color="#B5B5B5"/>
<stop offset="1" stop-color="#B5B5B5" stop-opacity="0.2"/>
</linearGradient>
<linearGradient id="paint3_linear_103_32" x1="725.27" y1="359.5" x2="87.2698" y2="359.5" gradientUnits="userSpaceOnUse">
<stop stop-color="#B5B5B5" stop-opacity="0.2"/>
<stop offset="0.546639" stop-color="#B5B5B5"/>
<stop offset="1" stop-color="#B5B5B5" stop-opacity="0.2"/>
</linearGradient>
<linearGradient id="paint4_linear_103_32" x1="730.094" y1="132.5" x2="90.2698" y2="132.5" gradientUnits="userSpaceOnUse">
<stop stop-color="#B5B5B5" stop-opacity="0.2"/>
<stop offset="0.546639" stop-color="#B5B5B5"/>
<stop offset="1" stop-color="#B5B5B5" stop-opacity="0.2"/>
</linearGradient>
<linearGradient id="paint5_linear_103_32" x1="409.77" y1="397" x2="409.77" y2="330.521" gradientUnits="userSpaceOnUse">
<stop stop-color="white"/>
<stop offset="1" stop-color="white" stop-opacity="0.5"/>
</linearGradient>
<clipPath id="clip0_103_32">
<rect width="818" height="397" fill="white" transform="translate(0.269775)"/>
</clipPath>
</defs>
</svg>
