<svg width="818" height="397" viewBox="0 0 818 397" fill="none" xmlns="http://www.w3.org/2000/svg">
<g clip-path="url(#clip0_30_951)">
<rect width="818" height="397" fill="#171717"/>
<rect x="85.5" y="46.5" width="648" height="404" rx="22.5" fill="#121212" stroke="#383838"/>
<path d="M144.852 177.455V162.909H145.784V177.455H144.852ZM147.324 167.71C147.278 167.252 147.083 166.896 146.739 166.642C146.394 166.388 145.926 166.261 145.335 166.261C144.934 166.261 144.595 166.318 144.318 166.432C144.042 166.542 143.83 166.695 143.682 166.892C143.538 167.089 143.466 167.312 143.466 167.562C143.458 167.771 143.502 167.953 143.597 168.108C143.695 168.263 143.83 168.398 144 168.511C144.17 168.621 144.367 168.718 144.591 168.801C144.814 168.881 145.053 168.949 145.307 169.006L146.352 169.256C146.86 169.369 147.326 169.521 147.75 169.71C148.174 169.9 148.542 170.133 148.852 170.409C149.163 170.686 149.403 171.011 149.574 171.386C149.748 171.761 149.837 172.191 149.841 172.676C149.837 173.388 149.655 174.006 149.295 174.528C148.939 175.047 148.424 175.451 147.75 175.739C147.08 176.023 146.271 176.165 145.324 176.165C144.384 176.165 143.566 176.021 142.869 175.733C142.176 175.445 141.634 175.019 141.244 174.455C140.858 173.886 140.655 173.184 140.636 172.347H143.017C143.044 172.737 143.155 173.062 143.352 173.324C143.553 173.581 143.82 173.777 144.153 173.909C144.491 174.038 144.871 174.102 145.295 174.102C145.712 174.102 146.074 174.042 146.381 173.92C146.691 173.799 146.932 173.631 147.102 173.415C147.273 173.199 147.358 172.951 147.358 172.67C147.358 172.409 147.28 172.189 147.125 172.011C146.973 171.833 146.75 171.682 146.455 171.557C146.163 171.432 145.805 171.318 145.381 171.216L144.114 170.898C143.133 170.659 142.358 170.286 141.79 169.778C141.222 169.271 140.939 168.587 140.943 167.727C140.939 167.023 141.127 166.407 141.506 165.881C141.888 165.354 142.413 164.943 143.08 164.648C143.746 164.352 144.504 164.205 145.352 164.205C146.216 164.205 146.97 164.352 147.614 164.648C148.261 164.943 148.765 165.354 149.125 165.881C149.485 166.407 149.67 167.017 149.682 167.71H147.324ZM151.428 176V174.227L155.57 170.392C155.922 170.051 156.217 169.744 156.456 169.472C156.698 169.199 156.882 168.932 157.007 168.67C157.132 168.405 157.195 168.119 157.195 167.812C157.195 167.472 157.117 167.178 156.962 166.932C156.806 166.682 156.594 166.491 156.325 166.358C156.056 166.222 155.751 166.153 155.411 166.153C155.054 166.153 154.744 166.225 154.479 166.369C154.214 166.513 154.009 166.72 153.865 166.989C153.721 167.258 153.649 167.578 153.649 167.949H151.314C151.314 167.187 151.486 166.527 151.831 165.966C152.176 165.405 152.659 164.972 153.28 164.665C153.901 164.358 154.617 164.205 155.428 164.205C156.261 164.205 156.986 164.352 157.604 164.648C158.225 164.939 158.708 165.345 159.053 165.864C159.397 166.383 159.57 166.977 159.57 167.648C159.57 168.087 159.482 168.521 159.308 168.949C159.138 169.377 158.833 169.852 158.393 170.375C157.954 170.894 157.335 171.517 156.536 172.244L154.837 173.909V173.989H159.723V176H151.428ZM165.807 176.159C164.958 176.159 164.203 176.013 163.54 175.722C162.881 175.426 162.36 175.021 161.977 174.506C161.598 173.987 161.403 173.388 161.392 172.71H163.869C163.884 172.994 163.977 173.244 164.148 173.46C164.322 173.672 164.553 173.837 164.841 173.955C165.129 174.072 165.453 174.131 165.812 174.131C166.188 174.131 166.519 174.064 166.807 173.932C167.095 173.799 167.32 173.616 167.483 173.381C167.646 173.146 167.727 172.875 167.727 172.568C167.727 172.258 167.64 171.983 167.466 171.744C167.295 171.502 167.049 171.312 166.727 171.176C166.409 171.04 166.03 170.972 165.591 170.972H164.506V169.165H165.591C165.962 169.165 166.29 169.1 166.574 168.972C166.862 168.843 167.085 168.665 167.244 168.438C167.403 168.206 167.483 167.938 167.483 167.631C167.483 167.339 167.413 167.083 167.273 166.864C167.136 166.64 166.943 166.466 166.693 166.341C166.447 166.216 166.159 166.153 165.83 166.153C165.496 166.153 165.191 166.214 164.915 166.335C164.638 166.453 164.417 166.621 164.25 166.841C164.083 167.061 163.994 167.318 163.983 167.614H161.625C161.636 166.943 161.828 166.352 162.199 165.841C162.57 165.33 163.07 164.93 163.699 164.642C164.331 164.35 165.045 164.205 165.841 164.205C166.644 164.205 167.347 164.35 167.949 164.642C168.551 164.934 169.019 165.328 169.352 165.824C169.689 166.316 169.856 166.869 169.852 167.483C169.856 168.134 169.653 168.678 169.244 169.114C168.839 169.549 168.311 169.826 167.659 169.943V170.034C168.515 170.144 169.167 170.441 169.614 170.926C170.064 171.407 170.288 172.009 170.284 172.733C170.288 173.396 170.097 173.985 169.71 174.5C169.328 175.015 168.799 175.42 168.125 175.716C167.451 176.011 166.678 176.159 165.807 176.159ZM174.378 174.409L174.315 175.034C174.266 175.534 174.171 176.032 174.031 176.528C173.895 177.028 173.751 177.481 173.599 177.886C173.452 178.292 173.332 178.61 173.241 178.841H171.673C171.73 178.617 171.808 178.305 171.906 177.903C172.005 177.506 172.098 177.059 172.185 176.562C172.272 176.066 172.327 175.561 172.349 175.045L172.378 174.409H174.378ZM176.392 173.955V172.017L181.25 164.364H182.92V167.045H181.932L178.869 171.892V171.983H185.773V173.955H176.392ZM181.977 176V173.364L182.023 172.506V164.364H184.33V176H181.977ZM191.713 176.159C190.865 176.159 190.109 176.013 189.446 175.722C188.787 175.426 188.266 175.021 187.884 174.506C187.505 173.987 187.31 173.388 187.298 172.71H189.776C189.791 172.994 189.884 173.244 190.054 173.46C190.228 173.672 190.459 173.837 190.747 173.955C191.035 174.072 191.359 174.131 191.719 174.131C192.094 174.131 192.425 174.064 192.713 173.932C193.001 173.799 193.226 173.616 193.389 173.381C193.552 173.146 193.634 172.875 193.634 172.568C193.634 172.258 193.546 171.983 193.372 171.744C193.202 171.502 192.955 171.312 192.634 171.176C192.315 171.04 191.937 170.972 191.497 170.972H190.412V169.165H191.497C191.868 169.165 192.196 169.1 192.48 168.972C192.768 168.843 192.991 168.665 193.151 168.438C193.31 168.206 193.389 167.938 193.389 167.631C193.389 167.339 193.319 167.083 193.179 166.864C193.043 166.64 192.849 166.466 192.599 166.341C192.353 166.216 192.065 166.153 191.736 166.153C191.402 166.153 191.098 166.214 190.821 166.335C190.545 166.453 190.323 166.621 190.156 166.841C189.99 167.061 189.901 167.318 189.889 167.614H187.531C187.543 166.943 187.734 166.352 188.105 165.841C188.476 165.33 188.976 164.93 189.605 164.642C190.238 164.35 190.952 164.205 191.747 164.205C192.55 164.205 193.253 164.35 193.855 164.642C194.457 164.934 194.925 165.328 195.259 165.824C195.596 166.316 195.762 166.869 195.759 167.483C195.762 168.134 195.56 168.678 195.151 169.114C194.745 169.549 194.217 169.826 193.565 169.943V170.034C194.421 170.144 195.073 170.441 195.52 170.926C195.971 171.407 196.194 172.009 196.19 172.733C196.194 173.396 196.003 173.985 195.616 174.5C195.234 175.015 194.705 175.42 194.031 175.716C193.357 176.011 192.584 176.159 191.713 176.159ZM202.209 176.159C201.406 176.159 200.69 176.011 200.061 175.716C199.436 175.42 198.94 175.013 198.572 174.494C198.205 173.975 198.014 173.381 197.999 172.71H200.385C200.411 173.161 200.601 173.527 200.953 173.807C201.305 174.087 201.724 174.227 202.209 174.227C202.595 174.227 202.936 174.142 203.232 173.972C203.531 173.797 203.764 173.557 203.93 173.25C204.101 172.939 204.186 172.583 204.186 172.182C204.186 171.773 204.099 171.413 203.925 171.102C203.754 170.792 203.518 170.549 203.214 170.375C202.911 170.201 202.565 170.112 202.175 170.108C201.834 170.108 201.502 170.178 201.18 170.318C200.862 170.458 200.614 170.65 200.436 170.892L198.249 170.5L198.8 164.364H205.913V166.375H200.828L200.527 169.29H200.595C200.8 169.002 201.108 168.763 201.521 168.574C201.934 168.384 202.396 168.29 202.908 168.29C203.608 168.29 204.233 168.455 204.783 168.784C205.332 169.114 205.766 169.566 206.084 170.142C206.402 170.714 206.559 171.373 206.555 172.119C206.559 172.903 206.377 173.6 206.01 174.21C205.646 174.816 205.137 175.294 204.482 175.642C203.83 175.987 203.072 176.159 202.209 176.159Z" fill="#CACACA"/>
<path d="M300.852 177.455V162.909H301.784V177.455H300.852ZM303.324 167.71C303.278 167.252 303.083 166.896 302.739 166.642C302.394 166.388 301.926 166.261 301.335 166.261C300.934 166.261 300.595 166.318 300.318 166.432C300.042 166.542 299.83 166.695 299.682 166.892C299.538 167.089 299.466 167.312 299.466 167.562C299.458 167.771 299.502 167.953 299.597 168.108C299.695 168.263 299.83 168.398 300 168.511C300.17 168.621 300.367 168.718 300.591 168.801C300.814 168.881 301.053 168.949 301.307 169.006L302.352 169.256C302.86 169.369 303.326 169.521 303.75 169.71C304.174 169.9 304.542 170.133 304.852 170.409C305.163 170.686 305.403 171.011 305.574 171.386C305.748 171.761 305.837 172.191 305.841 172.676C305.837 173.388 305.655 174.006 305.295 174.528C304.939 175.047 304.424 175.451 303.75 175.739C303.08 176.023 302.271 176.165 301.324 176.165C300.384 176.165 299.566 176.021 298.869 175.733C298.176 175.445 297.634 175.019 297.244 174.455C296.858 173.886 296.655 173.184 296.636 172.347H299.017C299.044 172.737 299.155 173.062 299.352 173.324C299.553 173.581 299.82 173.777 300.153 173.909C300.491 174.038 300.871 174.102 301.295 174.102C301.712 174.102 302.074 174.042 302.381 173.92C302.691 173.799 302.932 173.631 303.102 173.415C303.273 173.199 303.358 172.951 303.358 172.67C303.358 172.409 303.28 172.189 303.125 172.011C302.973 171.833 302.75 171.682 302.455 171.557C302.163 171.432 301.805 171.318 301.381 171.216L300.114 170.898C299.133 170.659 298.358 170.286 297.79 169.778C297.222 169.271 296.939 168.587 296.943 167.727C296.939 167.023 297.127 166.407 297.506 165.881C297.888 165.354 298.413 164.943 299.08 164.648C299.746 164.352 300.504 164.205 301.352 164.205C302.216 164.205 302.97 164.352 303.614 164.648C304.261 164.943 304.765 165.354 305.125 165.881C305.485 166.407 305.67 167.017 305.682 167.71H303.324ZM312.49 164.364V176H310.03V166.699H309.962L307.297 168.369V166.188L310.178 164.364H312.49ZM319.818 176.256C318.841 176.252 318 176.011 317.295 175.534C316.595 175.057 316.055 174.366 315.676 173.46C315.301 172.555 315.116 171.466 315.119 170.193C315.119 168.924 315.307 167.843 315.682 166.949C316.061 166.055 316.6 165.375 317.301 164.909C318.006 164.439 318.845 164.205 319.818 164.205C320.792 164.205 321.629 164.439 322.33 164.909C323.034 165.379 323.576 166.061 323.955 166.955C324.333 167.845 324.521 168.924 324.517 170.193C324.517 171.47 324.328 172.561 323.949 173.466C323.574 174.371 323.036 175.062 322.335 175.54C321.634 176.017 320.795 176.256 319.818 176.256ZM319.818 174.216C320.485 174.216 321.017 173.881 321.415 173.21C321.813 172.54 322.009 171.534 322.006 170.193C322.006 169.311 321.915 168.576 321.733 167.989C321.555 167.402 321.301 166.96 320.972 166.665C320.646 166.369 320.261 166.222 319.818 166.222C319.155 166.222 318.625 166.553 318.227 167.216C317.83 167.879 317.629 168.871 317.625 170.193C317.625 171.087 317.714 171.833 317.892 172.432C318.074 173.027 318.33 173.473 318.659 173.773C318.989 174.068 319.375 174.216 319.818 174.216ZM328.456 174.409L328.393 175.034C328.344 175.534 328.25 176.032 328.109 176.528C327.973 177.028 327.829 177.481 327.678 177.886C327.53 178.292 327.411 178.61 327.32 178.841H325.751C325.808 178.617 325.886 178.305 325.984 177.903C326.083 177.506 326.176 177.059 326.263 176.562C326.35 176.066 326.405 175.561 326.428 175.045L326.456 174.409H328.456ZM334.572 176.159C333.724 176.159 332.968 176.013 332.305 175.722C331.646 175.426 331.125 175.021 330.743 174.506C330.364 173.987 330.169 173.388 330.158 172.71H332.635C332.65 172.994 332.743 173.244 332.913 173.46C333.088 173.672 333.319 173.837 333.607 173.955C333.894 174.072 334.218 174.131 334.578 174.131C334.953 174.131 335.285 174.064 335.572 173.932C335.86 173.799 336.086 173.616 336.249 173.381C336.411 173.146 336.493 172.875 336.493 172.568C336.493 172.258 336.406 171.983 336.232 171.744C336.061 171.502 335.815 171.312 335.493 171.176C335.175 171.04 334.796 170.972 334.357 170.972H333.271V169.165H334.357C334.728 169.165 335.055 169.1 335.339 168.972C335.627 168.843 335.851 168.665 336.01 168.438C336.169 168.206 336.249 167.938 336.249 167.631C336.249 167.339 336.179 167.083 336.038 166.864C335.902 166.64 335.709 166.466 335.459 166.341C335.213 166.216 334.925 166.153 334.595 166.153C334.262 166.153 333.957 166.214 333.68 166.335C333.404 166.453 333.182 166.621 333.016 166.841C332.849 167.061 332.76 167.318 332.749 167.614H330.391C330.402 166.943 330.593 166.352 330.964 165.841C331.336 165.33 331.836 164.93 332.464 164.642C333.097 164.35 333.811 164.205 334.607 164.205C335.41 164.205 336.112 164.35 336.714 164.642C337.317 164.934 337.785 165.328 338.118 165.824C338.455 166.316 338.622 166.869 338.618 167.483C338.622 168.134 338.419 168.678 338.01 169.114C337.605 169.549 337.076 169.826 336.425 169.943V170.034C337.281 170.144 337.932 170.441 338.379 170.926C338.83 171.407 339.054 172.009 339.05 172.733C339.054 173.396 338.862 173.985 338.476 174.5C338.093 175.015 337.565 175.42 336.891 175.716C336.216 176.011 335.444 176.159 334.572 176.159ZM340.818 176V174.227L344.96 170.392C345.313 170.051 345.608 169.744 345.847 169.472C346.089 169.199 346.273 168.932 346.398 168.67C346.523 168.405 346.585 168.119 346.585 167.812C346.585 167.472 346.508 167.178 346.352 166.932C346.197 166.682 345.985 166.491 345.716 166.358C345.447 166.222 345.142 166.153 344.801 166.153C344.445 166.153 344.134 166.225 343.869 166.369C343.604 166.513 343.4 166.72 343.256 166.989C343.112 167.258 343.04 167.578 343.04 167.949H340.705C340.705 167.187 340.877 166.527 341.222 165.966C341.566 165.405 342.049 164.972 342.67 164.665C343.292 164.358 344.008 164.205 344.818 164.205C345.652 164.205 346.377 164.352 346.994 164.648C347.616 164.939 348.098 165.345 348.443 165.864C348.788 166.383 348.96 166.977 348.96 167.648C348.96 168.087 348.873 168.521 348.699 168.949C348.528 169.377 348.223 169.852 347.784 170.375C347.345 170.894 346.725 171.517 345.926 172.244L344.227 173.909V173.989H349.114V176H340.818ZM355.459 176.256C354.482 176.252 353.641 176.011 352.936 175.534C352.235 175.057 351.696 174.366 351.317 173.46C350.942 172.555 350.756 171.466 350.76 170.193C350.76 168.924 350.947 167.843 351.322 166.949C351.701 166.055 352.241 165.375 352.942 164.909C353.646 164.439 354.485 164.205 355.459 164.205C356.432 164.205 357.269 164.439 357.97 164.909C358.675 165.379 359.216 166.061 359.595 166.955C359.974 167.845 360.161 168.924 360.158 170.193C360.158 171.47 359.968 172.561 359.589 173.466C359.214 174.371 358.677 175.062 357.976 175.54C357.275 176.017 356.436 176.256 355.459 176.256ZM355.459 174.216C356.125 174.216 356.658 173.881 357.055 173.21C357.453 172.54 357.65 171.534 357.646 170.193C357.646 169.311 357.555 168.576 357.374 167.989C357.196 167.402 356.942 166.96 356.612 166.665C356.286 166.369 355.902 166.222 355.459 166.222C354.796 166.222 354.266 166.553 353.868 167.216C353.47 167.879 353.269 168.871 353.266 170.193C353.266 171.087 353.355 171.833 353.533 172.432C353.714 173.027 353.97 173.473 354.3 173.773C354.629 174.068 355.016 174.216 355.459 174.216Z" fill="#CACACA"/>
<rect x="119" y="165" width="10" height="10" fill="#22C55E"/>
<rect x="275" y="165" width="10" height="10" fill="#22C55E"/>
<rect x="119" y="187" width="91" height="10" rx="1" fill="#242424"/>
<rect x="275" y="187" width="91" height="10" rx="1" fill="#242424"/>
<path d="M729.824 132L90 132" stroke="url(#paint0_linear_30_951)" stroke-opacity="0.2" stroke-linecap="round"/>
<rect x="116" y="70" width="137" height="15" rx="1" fill="#242424"/>
<rect x="116" y="93" width="254" height="15" rx="1" fill="#242424"/>
<path d="M722 251.5L96 251.5" stroke="url(#paint1_linear_30_951)" stroke-opacity="0.2" stroke-linecap="round"/>
<path d="M722 288.5L96 288.5" stroke="url(#paint2_linear_30_951)" stroke-opacity="0.2" stroke-linecap="round"/>
<path d="M722 325.5L96 325.5" stroke="url(#paint3_linear_30_951)" stroke-opacity="0.2" stroke-linecap="round"/>
<g filter="url(#filter0_d_30_951)">
<path d="M111 270.5V270.5C114.091 270.207 116.981 272.069 117.99 275.006L122.396 287.827C123.473 290.959 126.328 293.136 129.633 293.345V293.345C131.229 293.446 132.819 293.079 134.208 292.288L138.461 289.867C139.466 289.295 140.575 288.93 141.723 288.794L143.235 288.614C143.865 288.54 144.503 288.644 145.076 288.916V288.916C145.865 289.291 146.479 289.957 146.786 290.776L147.148 291.741C149.045 296.795 156.165 296.877 158.178 291.867L158.864 290.16C159.873 287.647 162.31 286 165.018 286H172.603C175.047 286 177.44 286.694 179.506 288V288C181.571 289.306 183.965 290 186.409 290H188.858C189.973 290 191.06 290.347 191.969 290.994V290.994C194.589 292.859 198.251 292.015 199.79 289.19L200.349 288.165C202.45 284.312 207.812 283.879 210.504 287.344V287.344C211.569 288.716 213.168 289.567 214.901 289.685L215.786 289.745C218.174 289.906 220.368 291.121 221.772 293.06L225.352 298L228.26 303.124C228.779 304.038 229.184 305.011 229.469 306.023L231.149 312L233.111 316.841C233.555 317.936 234.209 318.935 235.036 319.779L235.288 320.037C238.343 323.159 243.243 323.519 246.722 320.879V320.879C247.913 319.975 249.317 319.394 250.798 319.194L251.474 319.102C254.327 318.715 256.923 317.251 258.729 315.01L261.818 311.177C262.448 310.395 262.986 309.542 263.42 308.636L268.036 299L269.056 296.872C270.111 294.668 271.768 292.806 273.833 291.5V291.5L276.538 289.575C277.54 288.862 278.436 288.01 279.199 287.045L282.791 282.5V282.5C283.784 280.931 285.471 279.935 287.325 279.825L290.838 279.617C292.103 279.542 293.294 278.997 294.177 278.089V278.089C296.605 275.593 300.766 276.225 302.343 279.329L311.55 297.448C312.689 299.688 314.801 301.274 317.27 301.743V301.743C319.782 302.219 321.921 303.852 323.045 306.148L328.111 316.5L331.439 324.621C331.679 325.206 331.876 325.808 332.028 326.422L333.907 334V334C334.723 336.321 337.465 337.306 339.571 336.035L340.815 335.283C341.127 335.095 341.418 334.873 341.683 334.622L342.135 334.193C343.644 332.761 344.708 330.925 345.2 328.904L346.027 325.5L350.589 312.517C350.708 312.177 350.906 311.871 351.168 311.623V311.623C351.589 311.223 352.148 311 352.729 311H355.953C357.041 311 358.105 311.318 359.015 311.916L361.261 313.391C362.947 314.498 365.222 313.838 366.052 312V312L368.16 306L371.322 296.5L371.455 296.122C372.062 294.393 373.027 292.813 374.288 291.484L384.883 280.314C385.91 279.232 387.515 278.932 388.863 279.572V279.572C389.453 279.852 389.951 280.293 390.3 280.844L394.508 287.5L398.151 295.276C398.532 296.09 398.997 296.862 399.537 297.58L403.994 303.5L405.362 305.933C407.121 309.063 410.432 311 414.022 311V311C419.106 311 423.369 307.162 423.902 302.107L429.52 248.799C429.715 246.954 430.301 245.173 431.241 243.574L442.626 224.204C444.157 221.599 446.953 220 449.974 220H450.888C452.255 220 453.581 219.529 454.642 218.666V218.666C457.589 216.269 461.998 217.211 463.708 220.604L464.597 222.368C465.598 224.354 467.425 225.796 469.589 226.31L472.06 226.896C473.741 227.295 475.326 228.025 476.722 229.044L479.018 230.719C480.623 231.891 482.476 232.679 484.433 233.023L488.193 233.683C492.821 234.497 496.65 237.745 498.208 242.178L501.145 250.538C501.979 252.912 504.22 254.5 506.736 254.5V254.5C509.268 254.5 511.52 256.108 512.342 258.503L512.91 260.159C515.15 266.688 523.882 267.858 527.763 262.151L528.885 260.5L534.752 251.222C537.089 247.527 542.532 247.693 544.639 251.524V251.524C545.648 253.36 547.576 254.5 549.671 254.5H553.76C555.032 254.5 556.241 255.048 557.08 256.003V256.003C559.043 258.237 562.607 257.934 564.165 255.401L567.75 249.57C568.186 248.86 568.527 248.095 568.764 247.296L575.859 223.312C576.44 221.348 578.245 220 580.293 220V220C582.314 220 584.101 221.313 584.705 223.241L588.968 236.847C589.308 237.931 589.919 238.91 590.743 239.692V239.692C594.027 242.808 599.394 241.818 601.35 237.735L602.66 235L604.062 231.011C604.831 228.823 606.66 227.176 608.916 226.641L610.009 226.382C612.226 225.856 614.53 226.816 615.717 228.762V228.762C617.589 231.83 621.917 232.161 624.234 229.413L627.465 225.581C627.791 225.194 628.083 224.781 628.339 224.344L633.225 216L638.886 206.599C639.318 205.882 639.951 205.309 640.707 204.95V204.95C641.962 204.355 643.429 204.409 644.636 205.097L645.576 205.632C647.109 206.504 648.936 206.698 650.617 206.166L652.722 205.5V205.5C654.897 204.616 657.394 205.306 658.806 207.181L661.017 210.118C661.458 210.704 661.833 211.338 662.135 212.006L666.424 221.5L667.981 226.857C668.934 230.136 673.409 230.557 674.957 227.514V227.514C676.294 224.886 679.996 224.743 681.531 227.26L683.47 230.437C683.698 230.81 683.87 231.215 683.981 231.638V231.638C684.504 233.619 686.295 235 688.345 235H690.322C692.226 235 694.057 235.775 695.389 237.136V237.136C698.049 239.854 702.389 240.039 705.25 237.533L707 236" stroke="#22C55E" stroke-width="3" stroke-linecap="round"/>
</g>
<rect x="86" y="197" width="647" height="200" fill="url(#paint4_linear_30_951)"/>
</g>
<defs>
<filter id="filter0_d_30_951" x="105.5" y="203.039" width="607" height="143.056" filterUnits="userSpaceOnUse" color-interpolation-filters="sRGB">
<feFlood flood-opacity="0" result="BackgroundImageFix"/>
<feColorMatrix in="SourceAlpha" type="matrix" values="0 0 0 0 0 0 0 0 0 0 0 0 0 0 0 0 0 0 127 0" result="hardAlpha"/>
<feOffset dy="4"/>
<feGaussianBlur stdDeviation="2"/>
<feComposite in2="hardAlpha" operator="out"/>
<feColorMatrix type="matrix" values="0 0 0 0 0 0 0 0 0 0 0 0 0 0 0 0 0 0 0.25 0"/>
<feBlend mode="normal" in2="BackgroundImageFix" result="effect1_dropShadow_30_951"/>
<feBlend mode="normal" in="SourceGraphic" in2="effect1_dropShadow_30_951" result="shape"/>
</filter>
<linearGradient id="paint0_linear_30_951" x1="729.824" y1="132.5" x2="90" y2="132.5" gradientUnits="userSpaceOnUse">
<stop stop-color="#B5B5B5" stop-opacity="0.2"/>
<stop offset="0.546639" stop-color="#B5B5B5"/>
<stop offset="1" stop-color="#B5B5B5" stop-opacity="0.2"/>
</linearGradient>
<linearGradient id="paint1_linear_30_951" x1="722" y1="252" x2="96" y2="252" gradientUnits="userSpaceOnUse">
<stop stop-color="#B5B5B5" stop-opacity="0.2"/>
<stop offset="0.546639" stop-color="#B5B5B5"/>
<stop offset="1" stop-color="#B5B5B5" stop-opacity="0.2"/>
</linearGradient>
<linearGradient id="paint2_linear_30_951" x1="722" y1="289" x2="96" y2="289" gradientUnits="userSpaceOnUse">
<stop stop-color="#B5B5B5" stop-opacity="0.2"/>
<stop offset="0.546639" stop-color="#B5B5B5"/>
<stop offset="1" stop-color="#B5B5B5" stop-opacity="0.2"/>
</linearGradient>
<linearGradient id="paint3_linear_30_951" x1="722" y1="326" x2="96" y2="326" gradientUnits="userSpaceOnUse">
<stop stop-color="#B5B5B5" stop-opacity="0.2"/>
<stop offset="0.546639" stop-color="#B5B5B5"/>
<stop offset="1" stop-color="#B5B5B5" stop-opacity="0.2"/>
</linearGradient>
<linearGradient id="paint4_linear_30_951" x1="409.5" y1="397" x2="409.5" y2="246.5" gradientUnits="userSpaceOnUse">
<stop stop-color="#121212"/>
<stop offset="1" stop-color="#121212" stop-opacity="0.37"/>
</linearGradient>
<clipPath id="clip0_30_951">
<rect width="818" height="397" fill="white"/>
</clipPath>
</defs>
</svg>
